<mxfile host="65bd71144e">
    <diagram id="Bm_NROk_n1h4VpcRFhIP" name="Page-4">
        <mxGraphModel dx="290" dy="650" grid="1" gridSize="35" guides="1" tooltips="1" connect="1" arrows="1" fold="1" page="1" pageScale="1" pageWidth="1540" pageHeight="560" background="#ffffff" math="0" shadow="0">
            <root>
                <mxCell id="0"/>
                <mxCell id="1" parent="0"/>
                <mxCell id="zDZjhmhKJS13hVG0JkSY-2" value="" style="shape=ext;double=1;rounded=0;whiteSpace=wrap;html=1;strokeColor=none;strokeWidth=2;fontFamily=Times New Roman;fontSize=48;fontColor=#000000;fillColor=#FFFFFF;labelBackgroundColor=none;" parent="1" vertex="1">
                    <mxGeometry x="70" y="70" width="1400" height="420" as="geometry"/>
                </mxCell>
                <mxCell id="t-RwPJ92_6B9RnDNpI1z-7" value="&lt;div style=&quot;line-height: 100%;&quot;&gt;&lt;i style=&quot;font-weight: normal; color: rgb(77, 77, 77); background-color: initial;&quot;&gt;&lt;font style=&quot;font-size: 36px;&quot;&gt;&amp;nbsp; &amp;nbsp; &amp;nbsp; 0x565062e6f800&lt;/font&gt;&lt;/i&gt;&lt;/div&gt;" style="shape=table;startSize=70;container=1;collapsible=0;childLayout=tableLayout;fontStyle=1;align=left;rounded=0;strokeColor=#000000;strokeWidth=7;fontFamily=Times New Roman;fontSize=12;fontColor=#000000;fillColor=#FFFFFF;html=1;spacing=0;spacingTop=8;" parent="1" vertex="1">
                    <mxGeometry x="140" y="140" width="1260" height="200" as="geometry"/>
                </mxCell>
                <mxCell id="t-RwPJ92_6B9RnDNpI1z-8" value="" style="shape=tableRow;horizontal=0;startSize=0;swimlaneHead=0;swimlaneBody=0;top=0;left=0;bottom=0;right=0;collapsible=0;dropTarget=0;fillColor=none;points=[[0,0.5],[1,0.5]];portConstraint=eastwest;rounded=0;strokeColor=#000000;strokeWidth=2;fontFamily=Times New Roman;fontSize=12;fontColor=#000000;html=1;" parent="t-RwPJ92_6B9RnDNpI1z-7" vertex="1">
                    <mxGeometry y="70" width="1260" height="130" as="geometry"/>
                </mxCell>
                <mxCell id="t-RwPJ92_6B9RnDNpI1z-9" value="&lt;i style=&quot;&quot;&gt;&lt;font style=&quot;font-size: 42px;&quot;&gt;Junk&lt;/font&gt;&lt;/i&gt;" style="shape=partialRectangle;html=1;whiteSpace=wrap;connectable=0;fillColor=none;top=0;left=0;bottom=0;right=0;overflow=visible;rounded=0;strokeColor=#000000;strokeWidth=2;fontFamily=Times New Roman;fontSize=50;fontColor=#000000;" parent="t-RwPJ92_6B9RnDNpI1z-8" vertex="1">
                    <mxGeometry width="280" height="130" as="geometry">
                        <mxRectangle width="280" height="130" as="alternateBounds"/>
                    </mxGeometry>
                </mxCell>
                <mxCell id="t-RwPJ92_6B9RnDNpI1z-10" value="&lt;i style=&quot;font-size: 42px;&quot;&gt;&lt;font style=&quot;font-size: 42px;&quot;&gt;&lt;span style=&quot;&quot;&gt;u8&lt;/span&gt;&lt;sub style=&quot;&quot;&gt;&lt;font style=&quot;font-size: 42px;&quot;&gt;0&lt;/font&gt;&lt;/sub&gt;&lt;/font&gt;&lt;/i&gt;" style="shape=partialRectangle;html=1;whiteSpace=wrap;connectable=0;fillColor=none;top=0;left=0;bottom=0;right=0;overflow=hidden;rounded=0;strokeColor=#000000;strokeWidth=2;fontFamily=Times New Roman;fontSize=50;fontColor=#000000;" parent="t-RwPJ92_6B9RnDNpI1z-8" vertex="1">
                    <mxGeometry x="280" width="140" height="130" as="geometry">
                        <mxRectangle width="140" height="130" as="alternateBounds"/>
                    </mxGeometry>
                </mxCell>
                <object label="&lt;i style=&quot;font-size: 50px;&quot;&gt;u8&lt;/i&gt;&lt;i style=&quot;&quot;&gt;&lt;sub style=&quot;&quot;&gt;&lt;font style=&quot;font-size: 28px;&quot;&gt;1&lt;/font&gt;&lt;/sub&gt;&lt;/i&gt;" id="t-RwPJ92_6B9RnDNpI1z-11">
                    <mxCell style="shape=partialRectangle;html=1;whiteSpace=wrap;connectable=0;fillColor=none;top=0;left=0;bottom=0;right=0;overflow=hidden;rounded=0;strokeColor=#000000;strokeWidth=2;fontFamily=Times New Roman;fontSize=50;fontColor=#000000;metaEdit=0;container=0;" parent="t-RwPJ92_6B9RnDNpI1z-8" vertex="1">
                        <mxGeometry x="420" width="140" height="130" as="geometry">
                            <mxRectangle width="140" height="130" as="alternateBounds"/>
                        </mxGeometry>
                    </mxCell>
                </object>
                <mxCell id="t-RwPJ92_6B9RnDNpI1z-12" value="&lt;i style=&quot;&quot;&gt;&lt;span style=&quot;font-size: 50px;&quot;&gt;u8&lt;/span&gt;&lt;sub style=&quot;&quot;&gt;&lt;font style=&quot;font-size: 28px;&quot;&gt;2&lt;/font&gt;&lt;/sub&gt;&lt;/i&gt;" style="shape=partialRectangle;html=1;whiteSpace=wrap;connectable=0;fillColor=none;top=0;left=0;bottom=0;right=0;overflow=visible;rounded=0;strokeColor=#000000;strokeWidth=2;fontFamily=Times New Roman;fontSize=50;fontColor=#000000;metaEdit=0;" parent="t-RwPJ92_6B9RnDNpI1z-8" vertex="1">
                    <mxGeometry x="560" width="140" height="130" as="geometry">
                        <mxRectangle width="140" height="130" as="alternateBounds"/>
                    </mxGeometry>
                </mxCell>
                <mxCell id="zDZjhmhKJS13hVG0JkSY-1" value="&lt;i style=&quot;font-size: 50px;&quot;&gt;Junk&lt;/i&gt;" style="shape=partialRectangle;html=1;whiteSpace=wrap;connectable=0;fillColor=none;top=0;left=0;bottom=0;right=0;overflow=width;rounded=0;strokeColor=#000000;strokeWidth=2;fontFamily=Times New Roman;fontSize=50;fontColor=#000000;metaEdit=0;" parent="t-RwPJ92_6B9RnDNpI1z-8" vertex="1">
                    <mxGeometry x="700" width="560" height="130" as="geometry">
                        <mxRectangle width="560" height="130" as="alternateBounds"/>
                    </mxGeometry>
                </mxCell>
            </root>
        </mxGraphModel>
    </diagram>
    <diagram id="l4dI5HHFgI8fvwGsgKrd" name="Page-2">
        <mxGraphModel dx="1420" dy="2029" grid="1" gridSize="10" guides="1" tooltips="1" connect="0" arrows="1" fold="1" page="1" pageScale="1" pageWidth="1200" pageHeight="600" background="#ffffff" math="0" shadow="0">
            <root>
                <mxCell id="0"/>
                <mxCell id="1" parent="0"/>
                <mxCell id="snHU3onCl2AF6dF9s7bu-10" value="" style="rounded=0;whiteSpace=wrap;html=1;strokeColor=none;strokeWidth=2;fontFamily=Helvetica;fontSize=30;fontColor=#000000;fillColor=#FFFFFF;" vertex="1" parent="1">
                    <mxGeometry x="50" y="-575" width="1100" height="550" as="geometry"/>
                </mxCell>
                <mxCell id="snHU3onCl2AF6dF9s7bu-1" value="" style="rounded=0;whiteSpace=wrap;html=1;strokeColor=#000000;strokeWidth=4;fontFamily=Times New Roman;fontSize=8;fontColor=#000000;fillColor=#FFFFFF;" vertex="1" parent="1">
                    <mxGeometry x="168.96551724137925" y="-460" width="620.6896551724136" height="68.98399999999994" as="geometry"/>
                </mxCell>
                <mxCell id="snHU3onCl2AF6dF9s7bu-2" value="" style="rounded=0;whiteSpace=wrap;html=1;strokeColor=#000000;strokeWidth=4;fontFamily=Times New Roman;fontSize=8;fontColor=#000000;fillColor=#FFFFFF;" vertex="1" parent="1">
                    <mxGeometry x="168.96551724137925" y="-184.06400000000025" width="620.6896551724136" height="68.98399999999994" as="geometry"/>
                </mxCell>
                <mxCell id="snHU3onCl2AF6dF9s7bu-3" value="`" style="rounded=0;whiteSpace=wrap;html=1;strokeColor=#666666;strokeWidth=6;fontFamily=Times New Roman;fontSize=8;fontColor=#000000;fillColor=none;" vertex="1" parent="1">
                    <mxGeometry x="100" y="-460" width="758.6206896551718" height="344.91999999999985" as="geometry"/>
                </mxCell>
                <mxCell id="snHU3onCl2AF6dF9s7bu-4" value="&lt;font color=&quot;#999999&quot; style=&quot;font-size: 30px;&quot;&gt;Evicted Bytes:11010101101001010100001011...&lt;/font&gt;" style="rounded=0;whiteSpace=wrap;html=1;strokeColor=#000000;strokeWidth=4;fontFamily=Times New Roman;fontSize=8;fontColor=#000000;fillColor=#FFFFFF;dashed=1;opacity=50;" vertex="1" parent="1">
                    <mxGeometry x="168.96551724137925" y="-356.524" width="620.6896551724136" height="137.96799999999988" as="geometry"/>
                </mxCell>
                <mxCell id="snHU3onCl2AF6dF9s7bu-5" style="edgeStyle=none;shape=connector;rounded=1;html=1;exitX=1;exitY=1;exitDx=0;exitDy=0;entryX=1;entryY=1;entryDx=0;entryDy=0;labelBackgroundColor=default;strokeColor=#000000;fontFamily=Times New Roman;fontSize=8;fontColor=#000000;endArrow=classic;endFill=1;startSize=9;endSize=8;strokeWidth=4;" edge="1" parent="1" source="snHU3onCl2AF6dF9s7bu-8" target="snHU3onCl2AF6dF9s7bu-4">
                    <mxGeometry relative="1" as="geometry"/>
                </mxCell>
                <mxCell id="snHU3onCl2AF6dF9s7bu-6" style="edgeStyle=none;shape=connector;rounded=1;html=1;entryX=0;entryY=1;entryDx=0;entryDy=0;labelBackgroundColor=default;strokeColor=#000000;fontFamily=Times New Roman;fontSize=8;fontColor=#000000;endArrow=classic;endFill=1;startSize=9;endSize=8;strokeWidth=4;" edge="1" parent="1" source="snHU3onCl2AF6dF9s7bu-8" target="snHU3onCl2AF6dF9s7bu-4">
                    <mxGeometry relative="1" as="geometry"/>
                </mxCell>
                <mxCell id="snHU3onCl2AF6dF9s7bu-7" style="edgeStyle=none;shape=connector;rounded=1;html=1;exitX=0;exitY=0;exitDx=0;exitDy=0;entryX=0;entryY=0;entryDx=0;entryDy=0;labelBackgroundColor=default;strokeColor=#000000;fontFamily=Times New Roman;fontSize=8;fontColor=#000000;endArrow=classic;endFill=1;startSize=9;endSize=8;strokeWidth=4;" edge="1" parent="1" source="snHU3onCl2AF6dF9s7bu-8" target="snHU3onCl2AF6dF9s7bu-4">
                    <mxGeometry relative="1" as="geometry"/>
                </mxCell>
                <mxCell id="snHU3onCl2AF6dF9s7bu-8" value="&lt;font style=&quot;font-size: 30px;&quot;&gt;&lt;font style=&quot;font-size: 30px;&quot;&gt;New Bytes: 10010101101101010011010101011.&lt;/font&gt;..&lt;/font&gt;" style="rounded=0;whiteSpace=wrap;html=1;strokeColor=#000000;strokeWidth=8;fontFamily=Times New Roman;fontSize=8;fontColor=#000000;fillColor=#FFFFFF;" vertex="1" parent="1">
                    <mxGeometry x="479.3103448275858" y="-425.50800000000004" width="620.6896551724136" height="137.96799999999988" as="geometry"/>
                </mxCell>
            </root>
        </mxGraphModel>
    </diagram>
    <diagram id="QnjCxXwogCqr9ksIJFGe" name="Page-1">
        <mxGraphModel grid="0" page="1" gridSize="10" guides="1" tooltips="1" connect="1" arrows="1" fold="1" pageScale="1" pageWidth="1100" pageHeight="850" background="#ffffff" math="0" shadow="0">
            <root>
                <mxCell id="0"/>
                <mxCell id="1" parent="0"/>
                <mxCell id="hB9CigN3_7l0mtME7oPs-146" value="" style="rounded=0;whiteSpace=wrap;html=1;fillColor=#FFFFFF;strokeWidth=1;strokeColor=none;fontFamily=Times New Roman;" vertex="1" parent="1">
                    <mxGeometry x="144" y="90" width="396" height="220" as="geometry"/>
                </mxCell>
                <mxCell id="135" value="" style="rounded=0;whiteSpace=wrap;html=1;strokeColor=#000000;strokeWidth=1;fontFamily=Times New Roman;fontSize=8;fontColor=#000000;fillColor=#FFFFFF;" vertex="1" parent="1">
                    <mxGeometry x="770" y="170" width="180" height="20" as="geometry"/>
                </mxCell>
                <mxCell id="137" value="" style="rounded=0;whiteSpace=wrap;html=1;strokeColor=#000000;strokeWidth=1;fontFamily=Times New Roman;fontSize=8;fontColor=#000000;fillColor=#FFFFFF;" vertex="1" parent="1">
                    <mxGeometry x="770" y="250" width="180" height="20" as="geometry"/>
                </mxCell>
                <mxCell id="134" value="`" style="rounded=0;whiteSpace=wrap;html=1;strokeColor=#666666;strokeWidth=3;fontFamily=Times New Roman;fontSize=8;fontColor=#000000;fillColor=none;" vertex="1" parent="1">
                    <mxGeometry x="750" y="170" width="220" height="100" as="geometry"/>
                </mxCell>
                <mxCell id="11" value="" style="rounded=0;whiteSpace=wrap;html=1;fillColor=#FFFFFF;strokeWidth=2;strokeColor=#000000;fontFamily=Times New Roman;" vertex="1" parent="1">
                    <mxGeometry x="190" y="110" width="310" height="180" as="geometry"/>
                </mxCell>
                <mxCell id="4" value="&lt;font color=&quot;#000000&quot;&gt;10010101101101010101010101011010101011011...&lt;/font&gt;" style="rounded=0;whiteSpace=wrap;html=1;fillColor=#FFFFFF;strokeWidth=1;strokeColor=#000000;fontFamily=Times New Roman;" vertex="1" parent="1">
                    <mxGeometry x="195" y="200" width="280" height="40" as="geometry"/>
                </mxCell>
                <mxCell id="7" value="" style="edgeStyle=none;html=1;fontColor=#000000;fontFamily=Times New Roman;" edge="1" parent="1" source="6" target="4">
                    <mxGeometry relative="1" as="geometry"/>
                </mxCell>
                <mxCell id="8" style="edgeStyle=none;html=1;fontColor=#000000;strokeColor=#000000;endArrow=baseDash;endFill=0;fontFamily=Times New Roman;" edge="1" parent="1" source="6">
                    <mxGeometry relative="1" as="geometry">
                        <mxPoint x="495" y="275" as="targetPoint"/>
                    </mxGeometry>
                </mxCell>
                <mxCell id="10" style="edgeStyle=none;shape=connector;rounded=1;html=1;labelBackgroundColor=default;strokeColor=#000000;fontFamily=Times New Roman;fontSize=12;fontColor=default;endArrow=baseDash;endFill=0;" edge="1" parent="1" source="6">
                    <mxGeometry relative="1" as="geometry">
                        <mxPoint x="215.0000000000001" y="275" as="targetPoint"/>
                    </mxGeometry>
                </mxCell>
                <mxCell id="6" value="&lt;font color=&quot;#000000&quot;&gt;64 Bytes&lt;br&gt;&lt;/font&gt;" style="text;html=1;strokeColor=none;fillColor=none;align=center;verticalAlign=middle;whiteSpace=wrap;rounded=0;strokeWidth=2;fontFamily=Times New Roman;" vertex="1" parent="1">
                    <mxGeometry x="322.5" y="260" width="65" height="30" as="geometry"/>
                </mxCell>
                <mxCell id="12" value="&lt;font color=&quot;#000000&quot;&gt;10010101101101010101010101011010101011011...&lt;/font&gt;" style="rounded=0;whiteSpace=wrap;html=1;fillColor=#FFFFFF;strokeWidth=1;strokeColor=#000000;fontFamily=Times New Roman;" vertex="1" parent="1">
                    <mxGeometry x="205" y="210" width="280" height="40" as="geometry"/>
                </mxCell>
                <mxCell id="13" value="&lt;font color=&quot;#000000&quot;&gt;10010101101101010101010101011010101011011...&lt;/font&gt;" style="rounded=0;whiteSpace=wrap;html=1;fillColor=#FFFFFF;strokeWidth=2;strokeColor=#000000;fontFamily=Times New Roman;" vertex="1" parent="1">
                    <mxGeometry x="215" y="220" width="280" height="40" as="geometry"/>
                </mxCell>
                <mxCell id="14" value="&lt;font color=&quot;#000000&quot;&gt;10010101101101010101010101011010101011011...&lt;/font&gt;" style="rounded=0;whiteSpace=wrap;html=1;fillColor=#FFFFFF;strokeWidth=1;strokeColor=#000000;fontFamily=Times New Roman;" vertex="1" parent="1">
                    <mxGeometry x="195" y="155" width="280" height="40" as="geometry"/>
                </mxCell>
                <mxCell id="15" value="&lt;font color=&quot;#000000&quot;&gt;10010101101101010101010101011010101011011...&lt;/font&gt;" style="rounded=0;whiteSpace=wrap;html=1;fillColor=#FFFFFF;strokeWidth=1;strokeColor=#000000;fontFamily=Times New Roman;" vertex="1" parent="1">
                    <mxGeometry x="205" y="165" width="280" height="40" as="geometry"/>
                </mxCell>
                <mxCell id="16" value="&lt;font color=&quot;#000000&quot;&gt;11010101101010101010111010101010100001011...&lt;/font&gt;" style="rounded=0;whiteSpace=wrap;html=1;fillColor=#FFFFFF;strokeWidth=2;strokeColor=#000000;fontFamily=Times New Roman;" vertex="1" parent="1">
                    <mxGeometry x="215" y="175" width="280" height="40" as="geometry"/>
                </mxCell>
                <mxCell id="20" value="&lt;font color=&quot;#000000&quot;&gt;10010101101101010101010101011010101011011...&lt;/font&gt;" style="rounded=0;whiteSpace=wrap;html=1;fillColor=#FFFFFF;strokeWidth=1;strokeColor=#000000;fontFamily=Times New Roman;" vertex="1" parent="1">
                    <mxGeometry x="195" y="112" width="280" height="40" as="geometry"/>
                </mxCell>
                <mxCell id="21" value="&lt;font color=&quot;#000000&quot;&gt;10010101101101010101010101011010101011011...&lt;/font&gt;" style="rounded=0;whiteSpace=wrap;html=1;fillColor=#FFFFFF;strokeWidth=1;strokeColor=#000000;fontFamily=Times New Roman;" vertex="1" parent="1">
                    <mxGeometry x="205" y="122" width="280" height="40" as="geometry"/>
                </mxCell>
                <mxCell id="22" value="&lt;font color=&quot;#000000&quot;&gt;10010101101101010101010101011010101011011...&lt;/font&gt;" style="rounded=0;whiteSpace=wrap;html=1;fillColor=#FFFFFF;strokeWidth=2;strokeColor=#000000;fontFamily=Times New Roman;" vertex="1" parent="1">
                    <mxGeometry x="215" y="132" width="280" height="40" as="geometry"/>
                </mxCell>
                <mxCell id="17" value="&lt;font size=&quot;1&quot; color=&quot;#000000&quot;&gt;&lt;span style=&quot;font-size: 14px;&quot;&gt;64KB Cache&amp;nbsp;&lt;/span&gt;&lt;/font&gt;" style="rounded=0;whiteSpace=wrap;html=1;fillColor=#FFFFFF;strokeWidth=1;strokeColor=none;fontFamily=Times New Roman;" vertex="1" parent="1">
                    <mxGeometry x="180" y="107" width="330" height="25" as="geometry"/>
                </mxCell>
                <mxCell id="18" value="" style="endArrow=none;html=1;rounded=1;labelBackgroundColor=default;strokeColor=#000000;fontFamily=Times New Roman;fontSize=12;fontColor=#000000;shape=connector;strokeWidth=2;endSize=8;startSize=9;targetPerimeterSpacing=7;sourcePerimeterSpacing=7;" edge="1" parent="1">
                    <mxGeometry width="50" height="50" relative="1" as="geometry">
                        <mxPoint x="190" y="133" as="sourcePoint"/>
                        <mxPoint x="500" y="133" as="targetPoint"/>
                    </mxGeometry>
                </mxCell>
                <mxCell id="31" style="edgeStyle=none;shape=connector;rounded=1;html=1;labelBackgroundColor=default;strokeColor=#000000;fontFamily=Times New Roman;fontSize=12;fontColor=#000000;endArrow=baseDash;endFill=0;startSize=9;endSize=8;" edge="1" parent="1" source="26">
                    <mxGeometry relative="1" as="geometry">
                        <mxPoint x="175" y="133" as="targetPoint"/>
                    </mxGeometry>
                </mxCell>
                <mxCell id="32" style="edgeStyle=none;shape=connector;rounded=1;html=1;labelBackgroundColor=default;strokeColor=#000000;fontFamily=Times New Roman;fontSize=12;fontColor=#000000;endArrow=baseDash;endFill=0;startSize=9;endSize=8;" edge="1" parent="1" source="26">
                    <mxGeometry relative="1" as="geometry">
                        <mxPoint x="174.5" y="290.00000000000006" as="targetPoint"/>
                    </mxGeometry>
                </mxCell>
                <mxCell id="26" value="&lt;font color=&quot;#000000&quot;&gt;1024 Cache Lines&lt;br&gt;&lt;/font&gt;" style="text;html=1;strokeColor=none;fillColor=none;align=center;verticalAlign=middle;whiteSpace=wrap;rounded=0;strokeWidth=2;rotation=-90;fontFamily=Times New Roman;" vertex="1" parent="1">
                    <mxGeometry x="123" y="196" width="103" height="30" as="geometry"/>
                </mxCell>
                <mxCell id="47" value="Cache Line" style="shape=table;startSize=30;container=1;collapsible=0;childLayout=tableLayout;fontStyle=1;align=center;rounded=0;strokeColor=#000000;strokeWidth=2;fontFamily=Times New Roman;fontSize=12;fontColor=#000000;fillColor=#FFFFFF;html=1;" vertex="1" parent="1">
                    <mxGeometry x="210" y="370" width="270" height="70" as="geometry"/>
                </mxCell>
                <mxCell id="48" value="" style="shape=tableRow;horizontal=0;startSize=0;swimlaneHead=0;swimlaneBody=0;top=0;left=0;bottom=0;right=0;collapsible=0;dropTarget=0;fillColor=none;points=[[0,0.5],[1,0.5]];portConstraint=eastwest;rounded=0;strokeColor=#000000;strokeWidth=2;fontFamily=Times New Roman;fontSize=12;fontColor=#000000;html=1;" vertex="1" parent="47">
                    <mxGeometry y="30" width="270" height="40" as="geometry"/>
                </mxCell>
                <mxCell id="49" value="&lt;i style=&quot;&quot;&gt;&lt;font style=&quot;font-size: 10px;&quot;&gt;u8&lt;/font&gt;&lt;span style=&quot;font-size: 8px;&quot;&gt;&lt;sub style=&quot;&quot;&gt;0&amp;nbsp;&lt;/sub&gt;&lt;/span&gt;&lt;/i&gt;" style="shape=partialRectangle;html=1;whiteSpace=wrap;connectable=0;fillColor=none;top=0;left=0;bottom=0;right=0;overflow=hidden;rounded=0;strokeColor=#000000;strokeWidth=2;fontFamily=Times New Roman;fontSize=10;fontColor=#000000;" vertex="1" parent="48">
                    <mxGeometry width="30" height="40" as="geometry">
                        <mxRectangle width="30" height="40" as="alternateBounds"/>
                    </mxGeometry>
                </mxCell>
                <mxCell id="50" value="&lt;i style=&quot;&quot;&gt;&lt;font style=&quot;font-size: 10px;&quot;&gt;u8&lt;/font&gt;&lt;sub style=&quot;font-size: 8px;&quot;&gt;1&amp;nbsp;&lt;/sub&gt;&lt;/i&gt;" style="shape=partialRectangle;html=1;whiteSpace=wrap;connectable=0;fillColor=none;top=0;left=0;bottom=0;right=0;overflow=hidden;rounded=0;strokeColor=#000000;strokeWidth=2;fontFamily=Times New Roman;fontSize=10;fontColor=#000000;" vertex="1" parent="48">
                    <mxGeometry x="30" width="30" height="40" as="geometry">
                        <mxRectangle width="30" height="40" as="alternateBounds"/>
                    </mxGeometry>
                </mxCell>
                <mxCell id="51" value="&lt;i&gt;u8&lt;sub&gt;&lt;font style=&quot;font-size: 8px;&quot;&gt;2&amp;nbsp;&lt;/font&gt;&lt;/sub&gt;&lt;/i&gt;" style="shape=partialRectangle;html=1;whiteSpace=wrap;connectable=0;fillColor=none;top=0;left=0;bottom=0;right=0;overflow=hidden;rounded=0;strokeColor=#000000;strokeWidth=2;fontFamily=Times New Roman;fontSize=10;fontColor=#000000;metaEdit=0;" vertex="1" parent="48">
                    <mxGeometry x="60" width="30" height="40" as="geometry">
                        <mxRectangle width="30" height="40" as="alternateBounds"/>
                    </mxGeometry>
                </mxCell>
                <mxCell id="60" value="..." style="shape=partialRectangle;html=1;whiteSpace=wrap;connectable=0;fillColor=none;top=0;left=0;bottom=0;right=0;overflow=hidden;rounded=0;strokeColor=#000000;strokeWidth=2;fontFamily=Times New Roman;fontSize=10;fontColor=#000000;metaEdit=0;" vertex="1" parent="48">
                    <mxGeometry x="90" width="90" height="40" as="geometry">
                        <mxRectangle width="90" height="40" as="alternateBounds"/>
                    </mxGeometry>
                </mxCell>
                <mxCell id="63" value="&lt;i&gt;u8&lt;sub&gt;&lt;font style=&quot;font-size: 8px;&quot;&gt;61&lt;/font&gt;&lt;/sub&gt;&lt;/i&gt;" style="shape=partialRectangle;html=1;whiteSpace=wrap;connectable=0;fillColor=none;top=0;left=0;bottom=0;right=0;overflow=hidden;rounded=0;strokeColor=#000000;strokeWidth=2;fontFamily=Times New Roman;fontSize=10;fontColor=#000000;metaEdit=0;" vertex="1" parent="48">
                    <mxGeometry x="180" width="30" height="40" as="geometry">
                        <mxRectangle width="30" height="40" as="alternateBounds"/>
                    </mxGeometry>
                </mxCell>
                <mxCell id="66" value="&lt;i&gt;u8&lt;sub&gt;&lt;font style=&quot;font-size: 8px;&quot;&gt;62&lt;/font&gt;&lt;/sub&gt;&lt;/i&gt;" style="shape=partialRectangle;html=1;whiteSpace=wrap;connectable=0;fillColor=none;top=0;left=0;bottom=0;right=0;overflow=hidden;rounded=0;strokeColor=#000000;strokeWidth=2;fontFamily=Times New Roman;fontSize=10;fontColor=#000000;metaEdit=0;" vertex="1" parent="48">
                    <mxGeometry x="210" width="30" height="40" as="geometry">
                        <mxRectangle width="30" height="40" as="alternateBounds"/>
                    </mxGeometry>
                </mxCell>
                <mxCell id="69" value="&lt;i&gt;u8&lt;sub&gt;&lt;font style=&quot;font-size: 8px;&quot;&gt;63&lt;/font&gt;&lt;/sub&gt;&lt;/i&gt;" style="shape=partialRectangle;html=1;whiteSpace=wrap;connectable=0;fillColor=none;top=0;left=0;bottom=0;right=0;overflow=hidden;rounded=0;strokeColor=#000000;strokeWidth=2;fontFamily=Times New Roman;fontSize=10;fontColor=#000000;metaEdit=0;" vertex="1" parent="48">
                    <mxGeometry x="240" width="30" height="40" as="geometry">
                        <mxRectangle width="30" height="40" as="alternateBounds"/>
                    </mxGeometry>
                </mxCell>
                <mxCell id="94" value="Cache Line" style="shape=table;startSize=30;container=1;collapsible=0;childLayout=tableLayout;fontStyle=1;align=center;rounded=0;strokeColor=#000000;strokeWidth=2;fontFamily=Times New Roman;fontSize=12;fontColor=#000000;fillColor=#FFFFFF;html=1;" vertex="1" parent="1">
                    <mxGeometry x="210" y="450" width="270" height="70" as="geometry"/>
                </mxCell>
                <mxCell id="95" value="" style="shape=tableRow;horizontal=0;startSize=0;swimlaneHead=0;swimlaneBody=0;top=0;left=0;bottom=0;right=0;collapsible=0;dropTarget=0;fillColor=none;points=[[0,0.5],[1,0.5]];portConstraint=eastwest;rounded=0;strokeColor=#000000;strokeWidth=2;fontFamily=Times New Roman;fontSize=12;fontColor=#000000;html=1;" vertex="1" parent="94">
                    <mxGeometry y="30" width="270" height="40" as="geometry"/>
                </mxCell>
                <mxCell id="96" value="&lt;i&gt;u8&lt;/i&gt;" style="shape=partialRectangle;html=1;whiteSpace=wrap;connectable=0;fillColor=none;top=0;left=0;bottom=0;right=0;overflow=hidden;rounded=0;strokeColor=#000000;strokeWidth=2;fontFamily=Times New Roman;fontSize=10;fontColor=#000000;" vertex="1" parent="95">
                    <mxGeometry width="30" height="40" as="geometry">
                        <mxRectangle width="30" height="40" as="alternateBounds"/>
                    </mxGeometry>
                </mxCell>
                <mxCell id="97" value="&lt;i style=&quot;&quot;&gt;&lt;font style=&quot;font-size: 10px;&quot;&gt;u8&lt;/font&gt;&lt;/i&gt;" style="shape=partialRectangle;html=1;whiteSpace=wrap;connectable=0;fillColor=none;top=0;left=0;bottom=0;right=0;overflow=hidden;rounded=0;strokeColor=#000000;strokeWidth=2;fontFamily=Times New Roman;fontSize=10;fontColor=#000000;" vertex="1" parent="95">
                    <mxGeometry x="30" width="30" height="40" as="geometry">
                        <mxRectangle width="30" height="40" as="alternateBounds"/>
                    </mxGeometry>
                </mxCell>
                <object label="u16" id="98">
                    <mxCell style="shape=partialRectangle;html=1;whiteSpace=wrap;connectable=0;fillColor=none;top=0;left=0;bottom=0;right=0;overflow=hidden;rounded=0;strokeColor=#000000;strokeWidth=2;fontFamily=Times New Roman;fontSize=10;fontColor=#000000;metaEdit=0;container=0;" vertex="1" parent="95">
                        <mxGeometry x="60" width="60" height="40" as="geometry">
                            <mxRectangle width="60" height="40" as="alternateBounds"/>
                        </mxGeometry>
                    </mxCell>
                </object>
                <mxCell id="99" value="Junk" style="shape=partialRectangle;html=1;whiteSpace=wrap;connectable=0;fillColor=none;top=0;left=0;bottom=0;right=0;overflow=hidden;rounded=0;strokeColor=#000000;strokeWidth=2;fontFamily=Times New Roman;fontSize=10;fontColor=#000000;metaEdit=0;" vertex="1" parent="95">
                    <mxGeometry x="120" width="150" height="40" as="geometry">
                        <mxRectangle width="150" height="40" as="alternateBounds"/>
                    </mxGeometry>
                </mxCell>
                <mxCell id="136" value="&lt;font color=&quot;#999999&quot; style=&quot;font-size: 8px;&quot;&gt;Evicted Bytes:11010101101001010100001011...&lt;/font&gt;" style="rounded=0;whiteSpace=wrap;html=1;strokeColor=#000000;strokeWidth=1;fontFamily=Times New Roman;fontSize=8;fontColor=#000000;fillColor=#FFFFFF;dashed=1;opacity=50;" vertex="1" parent="1">
                    <mxGeometry x="770" y="200" width="180" height="40" as="geometry"/>
                </mxCell>
                <mxCell id="146" style="edgeStyle=none;shape=connector;rounded=1;html=1;exitX=1;exitY=1;exitDx=0;exitDy=0;entryX=1;entryY=1;entryDx=0;entryDy=0;labelBackgroundColor=default;strokeColor=#000000;fontFamily=Times New Roman;fontSize=8;fontColor=#000000;endArrow=classic;endFill=1;startSize=9;endSize=8;strokeWidth=2;" edge="1" parent="1" source="138" target="136">
                    <mxGeometry relative="1" as="geometry"/>
                </mxCell>
                <mxCell id="139" style="edgeStyle=none;shape=connector;rounded=1;html=1;entryX=0;entryY=1;entryDx=0;entryDy=0;labelBackgroundColor=default;strokeColor=#000000;fontFamily=Times New Roman;fontSize=8;fontColor=#000000;endArrow=classic;endFill=1;startSize=9;endSize=8;strokeWidth=2;" edge="1" parent="1" source="138" target="136">
                    <mxGeometry relative="1" as="geometry"/>
                </mxCell>
                <mxCell id="140" style="edgeStyle=none;shape=connector;rounded=1;html=1;exitX=0;exitY=0;exitDx=0;exitDy=0;entryX=0;entryY=0;entryDx=0;entryDy=0;labelBackgroundColor=default;strokeColor=#000000;fontFamily=Times New Roman;fontSize=8;fontColor=#000000;endArrow=classic;endFill=1;startSize=9;endSize=8;strokeWidth=2;" edge="1" parent="1" source="138" target="136">
                    <mxGeometry relative="1" as="geometry"/>
                </mxCell>
                <mxCell id="138" value="&lt;font style=&quot;font-size: 8px;&quot;&gt;&lt;font style=&quot;font-size: 8px;&quot;&gt;New Bytes: 10010101101101010011010101011.&lt;/font&gt;..&lt;/font&gt;" style="rounded=0;whiteSpace=wrap;html=1;strokeColor=#000000;strokeWidth=3;fontFamily=Times New Roman;fontSize=8;fontColor=#000000;fillColor=#FFFFFF;" vertex="1" parent="1">
                    <mxGeometry x="860" y="180" width="180" height="40" as="geometry"/>
                </mxCell>
                <mxCell id="JQH4aRsgpqzWcCtsRt0n-146" value="Cache Line" style="shape=table;startSize=30;container=1;collapsible=0;childLayout=tableLayout;fontStyle=1;align=center;rounded=0;strokeColor=#000000;strokeWidth=2;fontFamily=Times New Roman;fontSize=12;fontColor=#000000;fillColor=#FFFFFF;html=1;" vertex="1" parent="1">
                    <mxGeometry x="210" y="526" width="270" height="70" as="geometry"/>
                </mxCell>
                <mxCell id="JQH4aRsgpqzWcCtsRt0n-147" value="" style="shape=tableRow;horizontal=0;startSize=0;swimlaneHead=0;swimlaneBody=0;top=0;left=0;bottom=0;right=0;collapsible=0;dropTarget=0;fillColor=none;points=[[0,0.5],[1,0.5]];portConstraint=eastwest;rounded=0;strokeColor=#000000;strokeWidth=2;fontFamily=Times New Roman;fontSize=12;fontColor=#000000;html=1;" vertex="1" parent="JQH4aRsgpqzWcCtsRt0n-146">
                    <mxGeometry y="30" width="270" height="40" as="geometry"/>
                </mxCell>
                <mxCell id="JQH4aRsgpqzWcCtsRt0n-148" value="&lt;i&gt;u8&lt;/i&gt;" style="shape=partialRectangle;html=1;whiteSpace=wrap;connectable=0;fillColor=none;top=0;left=0;bottom=0;right=0;overflow=hidden;rounded=0;strokeColor=#000000;strokeWidth=2;fontFamily=Times New Roman;fontSize=10;fontColor=#000000;" vertex="1" parent="JQH4aRsgpqzWcCtsRt0n-147">
                    <mxGeometry width="30" height="40" as="geometry">
                        <mxRectangle width="30" height="40" as="alternateBounds"/>
                    </mxGeometry>
                </mxCell>
                <mxCell id="JQH4aRsgpqzWcCtsRt0n-149" value="&lt;i style=&quot;&quot;&gt;&lt;font style=&quot;font-size: 10px;&quot;&gt;u8&lt;/font&gt;&lt;/i&gt;" style="shape=partialRectangle;html=1;whiteSpace=wrap;connectable=0;fillColor=none;top=0;left=0;bottom=0;right=0;overflow=hidden;rounded=0;strokeColor=#000000;strokeWidth=2;fontFamily=Times New Roman;fontSize=10;fontColor=#000000;" vertex="1" parent="JQH4aRsgpqzWcCtsRt0n-147">
                    <mxGeometry x="30" width="30" height="40" as="geometry">
                        <mxRectangle width="30" height="40" as="alternateBounds"/>
                    </mxGeometry>
                </mxCell>
                <object label="u16" id="JQH4aRsgpqzWcCtsRt0n-150">
                    <mxCell style="shape=partialRectangle;html=1;whiteSpace=wrap;connectable=0;fillColor=none;top=0;left=0;bottom=0;right=0;overflow=hidden;rounded=0;strokeColor=#000000;strokeWidth=2;fontFamily=Times New Roman;fontSize=10;fontColor=#000000;metaEdit=0;container=0;" vertex="1" parent="JQH4aRsgpqzWcCtsRt0n-147">
                        <mxGeometry x="60" width="60" height="40" as="geometry">
                            <mxRectangle width="60" height="40" as="alternateBounds"/>
                        </mxGeometry>
                    </mxCell>
                </object>
                <mxCell id="JQH4aRsgpqzWcCtsRt0n-151" value="Junk" style="shape=partialRectangle;html=1;whiteSpace=wrap;connectable=0;fillColor=none;top=0;left=0;bottom=0;right=0;overflow=hidden;rounded=0;strokeColor=#000000;strokeWidth=2;fontFamily=Times New Roman;fontSize=10;fontColor=#000000;metaEdit=0;" vertex="1" parent="JQH4aRsgpqzWcCtsRt0n-147">
                    <mxGeometry x="120" width="150" height="40" as="geometry">
                        <mxRectangle width="150" height="40" as="alternateBounds"/>
                    </mxGeometry>
                </mxCell>
            </root>
        </mxGraphModel>
    </diagram>
    <diagram id="yU-WzezjvICYiJ3aUXCU" name="Page-3">
        <mxGraphModel dx="1323" dy="526" grid="0" gridSize="10" guides="1" tooltips="1" connect="1" arrows="1" fold="1" page="1" pageScale="1" pageWidth="800" pageHeight="400" background="#ffffff" math="0" shadow="0">
            <root>
                <mxCell id="0"/>
                <mxCell id="1" parent="0"/>
                <mxCell id="83KAl1gWmFsHe2OmaOjt-5" value="" style="edgeStyle=none;html=1;labelBorderColor=default;strokeWidth=2;fontFamily=Helvetica;fontSize=21;fontColor=#000000;endSize=5;startSize=1;strokeColor=#000000;" edge="1" parent="1" source="83KAl1gWmFsHe2OmaOjt-3" target="83KAl1gWmFsHe2OmaOjt-4">
                    <mxGeometry relative="1" as="geometry"/>
                </mxCell>
                <mxCell id="83KAl1gWmFsHe2OmaOjt-3" value="&lt;p style=&quot;line-height: 100%;&quot;&gt;S3&lt;/p&gt;" style="rounded=0;whiteSpace=wrap;html=1;strokeColor=#000000;strokeWidth=2;fontSize=21;fontColor=#000000;fillColor=#FFFFFF;" vertex="1" parent="1">
                    <mxGeometry x="28" y="10" width="50" height="50" as="geometry"/>
                </mxCell>
                <mxCell id="83KAl1gWmFsHe2OmaOjt-7" value="" style="edgeStyle=none;html=1;labelBorderColor=default;strokeWidth=2;fontFamily=Helvetica;fontSize=21;fontColor=#000000;endSize=5;startSize=1;strokeColor=#000000;" edge="1" parent="1" source="83KAl1gWmFsHe2OmaOjt-4" target="83KAl1gWmFsHe2OmaOjt-6">
                    <mxGeometry relative="1" as="geometry"/>
                </mxCell>
                <mxCell id="83KAl1gWmFsHe2OmaOjt-4" value="&lt;p style=&quot;line-height: 100%;&quot;&gt;Kinesis&lt;/p&gt;" style="rounded=0;whiteSpace=wrap;html=1;strokeColor=#000000;strokeWidth=2;fontSize=21;fontColor=#000000;fillColor=#FFFFFF;" vertex="1" parent="1">
                    <mxGeometry x="158" y="10" width="100" height="50" as="geometry"/>
                </mxCell>
                <mxCell id="83KAl1gWmFsHe2OmaOjt-9" value="" style="edgeStyle=none;html=1;labelBorderColor=default;strokeWidth=2;fontFamily=Helvetica;fontSize=21;fontColor=#000000;endSize=5;startSize=1;strokeColor=#000000;" edge="1" parent="1" source="83KAl1gWmFsHe2OmaOjt-6" target="83KAl1gWmFsHe2OmaOjt-8">
                    <mxGeometry relative="1" as="geometry"/>
                </mxCell>
                <mxCell id="83KAl1gWmFsHe2OmaOjt-6" value="&lt;p style=&quot;line-height: 100%;&quot;&gt;S3&lt;/p&gt;" style="rounded=0;whiteSpace=wrap;html=1;strokeColor=#000000;strokeWidth=2;fontSize=21;fontColor=#000000;fillColor=#FFFFFF;" vertex="1" parent="1">
                    <mxGeometry x="338" y="10" width="100" height="50" as="geometry"/>
                </mxCell>
                <mxCell id="83KAl1gWmFsHe2OmaOjt-11" value="" style="edgeStyle=none;html=1;labelBorderColor=default;strokeColor=#000000;strokeWidth=2;fontFamily=Helvetica;fontSize=21;fontColor=#000000;startSize=1;endSize=5;" edge="1" parent="1" source="83KAl1gWmFsHe2OmaOjt-8" target="83KAl1gWmFsHe2OmaOjt-10">
                    <mxGeometry relative="1" as="geometry"/>
                </mxCell>
                <mxCell id="83KAl1gWmFsHe2OmaOjt-8" value="&lt;p style=&quot;line-height: 100%;&quot;&gt;Lambda&lt;/p&gt;" style="rounded=0;whiteSpace=wrap;html=1;strokeColor=#000000;strokeWidth=2;fontSize=21;fontColor=#000000;fillColor=#FFFFFF;" vertex="1" parent="1">
                    <mxGeometry x="518" y="10" width="100" height="50" as="geometry"/>
                </mxCell>
                <mxCell id="83KAl1gWmFsHe2OmaOjt-10" value="&lt;p style=&quot;line-height: 100%;&quot;&gt;SnowPipe&lt;/p&gt;" style="rounded=0;whiteSpace=wrap;html=1;strokeColor=#000000;strokeWidth=2;fontSize=21;fontColor=#000000;fillColor=#FFFFFF;" vertex="1" parent="1">
                    <mxGeometry x="698" y="10" width="100" height="50" as="geometry"/>
                </mxCell>
                <mxCell id="83KAl1gWmFsHe2OmaOjt-18" value="Files Dropped into S3" style="text;html=1;strokeColor=none;fillColor=none;align=center;verticalAlign=middle;whiteSpace=wrap;rounded=0;strokeWidth=2;fontFamily=Helvetica;fontSize=10;fontColor=#000000;" vertex="1" parent="1">
                    <mxGeometry x="-2" y="60" width="110" height="30" as="geometry"/>
                </mxCell>
                <mxCell id="83KAl1gWmFsHe2OmaOjt-20" value="Files Dropped into S3" style="text;html=1;strokeColor=none;fillColor=none;align=center;verticalAlign=middle;whiteSpace=wrap;rounded=0;strokeWidth=2;fontFamily=Helvetica;fontSize=10;fontColor=#000000;" vertex="1" parent="1">
                    <mxGeometry x="153" y="60" width="110" height="30" as="geometry"/>
                </mxCell>
                <mxCell id="83KAl1gWmFsHe2OmaOjt-23" value="8 sources of data.&lt;br&gt;Latency varied.&lt;br&gt;Includes record updates from the last 10 days." style="text;html=1;strokeColor=none;fillColor=none;align=center;verticalAlign=top;whiteSpace=wrap;rounded=0;strokeWidth=2;fontFamily=Helvetica;fontSize=10;fontColor=#000000;" vertex="1" parent="1">
                    <mxGeometry x="-2" y="85" width="110" height="73" as="geometry"/>
                </mxCell>
                <mxCell id="83KAl1gWmFsHe2OmaOjt-25" value="Buffer and load data as .parquet in S3" style="text;html=1;strokeColor=none;fillColor=none;align=center;verticalAlign=top;whiteSpace=wrap;rounded=0;strokeWidth=2;fontFamily=Helvetica;fontSize=10;fontColor=#000000;" vertex="1" parent="1">
                    <mxGeometry x="153" y="85" width="110" height="73" as="geometry"/>
                </mxCell>
                <mxCell id="83KAl1gWmFsHe2OmaOjt-29" value="Files land in Stage Locations" style="text;html=1;strokeColor=none;fillColor=none;align=center;verticalAlign=middle;whiteSpace=wrap;rounded=0;strokeWidth=2;fontFamily=Helvetica;fontSize=10;fontColor=#000000;" vertex="1" parent="1">
                    <mxGeometry x="333" y="60" width="110" height="30" as="geometry"/>
                </mxCell>
                <mxCell id="83KAl1gWmFsHe2OmaOjt-30" value="Lambda invokes SnowPipe Ingest" style="text;html=1;strokeColor=none;fillColor=none;align=center;verticalAlign=middle;whiteSpace=wrap;rounded=0;strokeWidth=2;fontFamily=Helvetica;fontSize=10;fontColor=#000000;" vertex="1" parent="1">
                    <mxGeometry x="513" y="60" width="110" height="30" as="geometry"/>
                </mxCell>
                <mxCell id="83KAl1gWmFsHe2OmaOjt-32" value="Produce a stage file manifest to pass along to SnowPipe REST API&lt;br&gt;Non-destructively merge files into S3 Lakehouse" style="text;html=1;strokeColor=none;fillColor=none;align=center;verticalAlign=top;whiteSpace=wrap;rounded=0;strokeWidth=2;fontFamily=Helvetica;fontSize=10;fontColor=#000000;" vertex="1" parent="1">
                    <mxGeometry x="513" y="85" width="110" height="109" as="geometry"/>
                </mxCell>
                <mxCell id="83KAl1gWmFsHe2OmaOjt-34" value="Data in external stage location is ingested then copied into DB.&lt;br&gt;LIST command is invoked for file clean up later" style="text;html=1;strokeColor=none;fillColor=none;align=center;verticalAlign=top;whiteSpace=wrap;rounded=0;strokeWidth=2;fontFamily=Helvetica;fontSize=10;fontColor=#000000;" vertex="1" parent="1">
                    <mxGeometry x="693" y="85" width="110" height="86" as="geometry"/>
                </mxCell>
                <mxCell id="83KAl1gWmFsHe2OmaOjt-35" value="S3 triggers lambda" style="text;html=1;strokeColor=none;fillColor=none;align=center;verticalAlign=top;whiteSpace=wrap;rounded=0;strokeWidth=2;fontFamily=Helvetica;fontSize=10;fontColor=#000000;" vertex="1" parent="1">
                    <mxGeometry x="333" y="85" width="110" height="73" as="geometry"/>
                </mxCell>
                <mxCell id="83KAl1gWmFsHe2OmaOjt-37" value="COPY INTO &amp;amp; LIST" style="text;html=1;strokeColor=none;fillColor=none;align=center;verticalAlign=middle;whiteSpace=wrap;rounded=0;strokeWidth=2;fontFamily=Helvetica;fontSize=10;fontColor=#000000;" vertex="1" parent="1">
                    <mxGeometry x="693" y="60" width="110" height="30" as="geometry"/>
                </mxCell>
                <mxCell id="83KAl1gWmFsHe2OmaOjt-40" value="Activity, Location, &amp;amp; Demographic Data&amp;nbsp;&lt;br&gt;&lt;br&gt;Goal was to group behavior patterns during various windows of time&lt;br&gt;&lt;br&gt;Records would some times joined with survey data as well for more fine-grained analysis" style="text;html=1;strokeColor=none;fillColor=none;align=center;verticalAlign=top;whiteSpace=wrap;rounded=0;strokeWidth=2;fontFamily=Helvetica;fontSize=10;fontColor=#000000;" vertex="1" parent="1">
                    <mxGeometry x="345" y="129" width="110" height="142" as="geometry"/>
                </mxCell>
                <mxCell id="83KAl1gWmFsHe2OmaOjt-45" value="" style="edgeStyle=none;html=1;labelBorderColor=default;strokeColor=#000000;strokeWidth=2;fontFamily=Helvetica;fontSize=10;fontColor=#000000;startSize=1;endSize=5;" edge="1" parent="1" source="83KAl1gWmFsHe2OmaOjt-41" target="83KAl1gWmFsHe2OmaOjt-44">
                    <mxGeometry relative="1" as="geometry"/>
                </mxCell>
                <mxCell id="83KAl1gWmFsHe2OmaOjt-41" value="&lt;p style=&quot;line-height: 100%;&quot;&gt;RedShift&lt;/p&gt;" style="rounded=0;whiteSpace=wrap;html=1;strokeColor=#000000;strokeWidth=2;fontSize=21;fontColor=#000000;fillColor=#FFFFFF;" vertex="1" parent="1">
                    <mxGeometry x="935" y="10" width="100" height="50" as="geometry"/>
                </mxCell>
                <mxCell id="83KAl1gWmFsHe2OmaOjt-42" value="Survey responses, updates, changes are made continuously&lt;br&gt;&lt;br&gt;Thousands of active surveys." style="text;html=1;strokeColor=none;fillColor=none;align=center;verticalAlign=top;whiteSpace=wrap;rounded=0;strokeWidth=2;fontFamily=Helvetica;fontSize=10;fontColor=#000000;" vertex="1" parent="1">
                    <mxGeometry x="930" y="85" width="110" height="81" as="geometry"/>
                </mxCell>
                <mxCell id="83KAl1gWmFsHe2OmaOjt-43" value="Surveys land in DB" style="text;html=1;strokeColor=none;fillColor=none;align=center;verticalAlign=middle;whiteSpace=wrap;rounded=0;strokeWidth=2;fontFamily=Helvetica;fontSize=10;fontColor=#000000;" vertex="1" parent="1">
                    <mxGeometry x="930" y="60" width="110" height="30" as="geometry"/>
                </mxCell>
                <mxCell id="83KAl1gWmFsHe2OmaOjt-49" value="" style="edgeStyle=none;html=1;labelBorderColor=default;strokeColor=#000000;strokeWidth=2;fontFamily=Helvetica;fontSize=10;fontColor=#000000;startSize=1;endSize=5;" edge="1" parent="1" source="83KAl1gWmFsHe2OmaOjt-44" target="83KAl1gWmFsHe2OmaOjt-48">
                    <mxGeometry relative="1" as="geometry"/>
                </mxCell>
                <mxCell id="83KAl1gWmFsHe2OmaOjt-44" value="&lt;p style=&quot;line-height: 100%;&quot;&gt;Kafka&lt;/p&gt;" style="rounded=0;whiteSpace=wrap;html=1;strokeColor=#000000;strokeWidth=2;fontSize=21;fontColor=#000000;fillColor=#FFFFFF;" vertex="1" parent="1">
                    <mxGeometry x="1115" y="10" width="100" height="50" as="geometry"/>
                </mxCell>
                <mxCell id="83KAl1gWmFsHe2OmaOjt-46" value="Kafka Batches Changes" style="text;html=1;strokeColor=none;fillColor=none;align=center;verticalAlign=middle;whiteSpace=wrap;rounded=0;strokeWidth=2;fontFamily=Helvetica;fontSize=10;fontColor=#000000;" vertex="1" parent="1">
                    <mxGeometry x="1110" y="60" width="110" height="30" as="geometry"/>
                </mxCell>
                <mxCell id="83KAl1gWmFsHe2OmaOjt-47" value="Surveys track 10,000+ data points so batching is needed.&lt;br&gt;&lt;br&gt;May also be triggered manually" style="text;html=1;strokeColor=none;fillColor=none;align=center;verticalAlign=top;whiteSpace=wrap;rounded=0;strokeWidth=2;fontFamily=Helvetica;fontSize=10;fontColor=#000000;" vertex="1" parent="1">
                    <mxGeometry x="1110" y="85" width="110" height="106" as="geometry"/>
                </mxCell>
                <mxCell id="83KAl1gWmFsHe2OmaOjt-48" value="&lt;p style=&quot;line-height: 100%;&quot;&gt;Serverless EMR&lt;/p&gt;" style="rounded=0;whiteSpace=wrap;html=1;strokeColor=#000000;strokeWidth=2;fontSize=21;fontColor=#000000;fillColor=#FFFFFF;" vertex="1" parent="1">
                    <mxGeometry x="1295" y="10" width="175" height="50" as="geometry"/>
                </mxCell>
                <mxCell id="83KAl1gWmFsHe2OmaOjt-50" value="PySpark ETL" style="text;html=1;strokeColor=none;fillColor=none;align=center;verticalAlign=middle;whiteSpace=wrap;rounded=0;strokeWidth=2;fontFamily=Helvetica;fontSize=10;fontColor=#000000;" vertex="1" parent="1">
                    <mxGeometry x="1327.5" y="60" width="110" height="30" as="geometry"/>
                </mxCell>
                <mxCell id="83KAl1gWmFsHe2OmaOjt-52" value="2 PySpark Consumers to Normalize Data into the projects Data Lake&lt;br&gt;&lt;br&gt;May be triggered manually." style="text;html=1;strokeColor=none;fillColor=none;align=center;verticalAlign=top;whiteSpace=wrap;rounded=0;strokeWidth=2;fontFamily=Helvetica;fontSize=10;fontColor=#000000;" vertex="1" parent="1">
                    <mxGeometry x="1327.5" y="85" width="110" height="82" as="geometry"/>
                </mxCell>
                <mxCell id="83KAl1gWmFsHe2OmaOjt-56" value="1000s of active surveys, some with up to 40,000 data points&lt;br&gt;&lt;br&gt;The main pipeline into the data lake.&lt;br&gt;&lt;br&gt;Served ML and Data Science initiatives and Models." style="text;html=1;strokeColor=none;fillColor=none;align=center;verticalAlign=top;whiteSpace=wrap;rounded=0;strokeWidth=2;fontFamily=Helvetica;fontSize=10;fontColor=#000000;" vertex="1" parent="1">
                    <mxGeometry x="1110" y="200" width="110" height="129" as="geometry"/>
                </mxCell>
            </root>
        </mxGraphModel>
    </diagram>
</mxfile>